<?xml version="1.0" encoding="UTF-8" standalone="no"?>
<!DOCTYPE svg PUBLIC "-//W3C//DTD SVG 1.1//EN"
 "http://www.w3.org/Graphics/SVG/1.1/DTD/svg11.dtd">
<!-- Generated by graphviz version 2.43.0 (0)
 -->
<!-- Title: snakemake_dag Pages: 1 -->
<svg width="118pt" height="332pt"
 viewBox="0.00 0.00 118.00 332.00" xmlns="http://www.w3.org/2000/svg" xmlns:xlink="http://www.w3.org/1999/xlink">
<g id="graph0" class="graph" transform="scale(1 1) rotate(0) translate(4 328)">
<title>snakemake_dag</title>
<polygon fill="white" stroke="transparent" points="-4,4 -4,-328 114,-328 114,4 -4,4"/>
<!-- 0 -->
<g id="node1" class="node">
<title>0</title>
<path fill="none" stroke="#88d856" stroke-width="2" d="M89.5,-36C89.5,-36 20.5,-36 20.5,-36 14.5,-36 8.5,-30 8.5,-24 8.5,-24 8.5,-12 8.5,-12 8.5,-6 14.5,0 20.5,0 20.5,0 89.5,0 89.5,0 95.5,0 101.5,-6 101.5,-12 101.5,-12 101.5,-24 101.5,-24 101.5,-30 95.5,-36 89.5,-36"/>
<text text-anchor="middle" x="55" y="-21" font-family="sans" font-size="10.00">annotations per</text>
<text text-anchor="middle" x="55" y="-10" font-family="sans" font-size="10.00">discovered bin</text>
</g>
<!-- 1 -->
<g id="node2" class="node">
<title>1</title>
<path fill="none" stroke="#56c1d8" stroke-width="2" d="M98,-108C98,-108 12,-108 12,-108 6,-108 0,-102 0,-96 0,-96 0,-84 0,-84 0,-78 6,-72 12,-72 12,-72 98,-72 98,-72 104,-72 110,-78 110,-84 110,-84 110,-96 110,-96 110,-102 104,-108 98,-108"/>
<text text-anchor="middle" x="55" y="-93" font-family="sans" font-size="10.00">diamond</text>
<text text-anchor="middle" x="55" y="-82" font-family="sans" font-size="10.00">(COG as reference)</text>
</g>
<!-- 1&#45;&gt;0 -->
<g id="edge1" class="edge">
<title>1&#45;&gt;0</title>
<path fill="none" stroke="grey" stroke-width="2" d="M55,-71.7C55,-63.98 55,-54.71 55,-46.11"/>
<polygon fill="grey" stroke="grey" stroke-width="2" points="58.5,-46.1 55,-36.1 51.5,-46.1 58.5,-46.1"/>
</g>
<!-- 2 -->
<g id="node3" class="node">
<title>2</title>
<path fill="none" stroke="#d8bc56" stroke-width="2" d="M71,-180C71,-180 39,-180 39,-180 33,-180 27,-174 27,-168 27,-168 27,-156 27,-156 27,-150 33,-144 39,-144 39,-144 71,-144 71,-144 77,-144 83,-150 83,-156 83,-156 83,-168 83,-168 83,-174 77,-180 71,-180"/>
<text text-anchor="middle" x="55" y="-159.5" font-family="sans" font-size="10.00">prodigal</text>
</g>
<!-- 2&#45;&gt;1 -->
<g id="edge2" class="edge">
<title>2&#45;&gt;1</title>
<path fill="none" stroke="grey" stroke-width="2" d="M55,-143.7C55,-135.98 55,-126.71 55,-118.11"/>
<polygon fill="grey" stroke="grey" stroke-width="2" points="58.5,-118.1 55,-108.1 51.5,-118.1 58.5,-118.1"/>
</g>
<!-- 3 -->
<g id="node4" class="node">
<title>3</title>
<path fill="none" stroke="#d85656" stroke-width="2" d="M72.5,-252C72.5,-252 37.5,-252 37.5,-252 31.5,-252 25.5,-246 25.5,-240 25.5,-240 25.5,-228 25.5,-228 25.5,-222 31.5,-216 37.5,-216 37.5,-216 72.5,-216 72.5,-216 78.5,-216 84.5,-222 84.5,-228 84.5,-228 84.5,-240 84.5,-240 84.5,-246 78.5,-252 72.5,-252"/>
<text text-anchor="middle" x="55" y="-231.5" font-family="sans" font-size="10.00">maxbin2</text>
</g>
<!-- 3&#45;&gt;2 -->
<g id="edge3" class="edge">
<title>3&#45;&gt;2</title>
<path fill="none" stroke="grey" stroke-width="2" d="M55,-215.7C55,-207.98 55,-198.71 55,-190.11"/>
<polygon fill="grey" stroke="grey" stroke-width="2" points="58.5,-190.1 55,-180.1 51.5,-190.1 58.5,-190.1"/>
</g>
<!-- 4 -->
<g id="node5" class="node">
<title>4</title>
<path fill="none" stroke="#56d88a" stroke-width="2" d="M71.5,-324C71.5,-324 38.5,-324 38.5,-324 32.5,-324 26.5,-318 26.5,-312 26.5,-312 26.5,-300 26.5,-300 26.5,-294 32.5,-288 38.5,-288 38.5,-288 71.5,-288 71.5,-288 77.5,-288 83.5,-294 83.5,-300 83.5,-300 83.5,-312 83.5,-312 83.5,-318 77.5,-324 71.5,-324"/>
<text text-anchor="middle" x="55" y="-303.5" font-family="sans" font-size="10.00">megahit</text>
</g>
<!-- 4&#45;&gt;3 -->
<g id="edge4" class="edge">
<title>4&#45;&gt;3</title>
<path fill="none" stroke="grey" stroke-width="2" d="M55,-287.7C55,-279.98 55,-270.71 55,-262.11"/>
<polygon fill="grey" stroke="grey" stroke-width="2" points="58.5,-262.1 55,-252.1 51.5,-262.1 58.5,-262.1"/>
</g>
</g>
</svg>
