<?xml version="1.0" encoding="UTF-8" standalone="no"?>
<!DOCTYPE svg PUBLIC "-//W3C//DTD SVG 1.1//EN"
 "http://www.w3.org/Graphics/SVG/1.1/DTD/svg11.dtd">
<!-- Generated by graphviz version 2.43.0 (0)
 -->
<!-- Title: snakemake_dag Pages: 1 -->
<svg width="166pt" height="476pt"
 viewBox="0.00 0.00 166.00 476.00" xmlns="http://www.w3.org/2000/svg" xmlns:xlink="http://www.w3.org/1999/xlink">
<g id="graph0" class="graph" transform="scale(1 1) rotate(0) translate(4 472)">
<title>snakemake_dag</title>
<polygon fill="white" stroke="transparent" points="-4,4 -4,-472 162,-472 162,4 -4,4"/>
<!-- 0 -->
<g id="node1" class="node">
<title>0</title>
<path fill="none" stroke="#56a2d8" stroke-width="2" d="M94,-36C94,-36 64,-36 64,-36 58,-36 52,-30 52,-24 52,-24 52,-12 52,-12 52,-6 58,0 64,0 64,0 94,0 94,0 100,0 106,-6 106,-12 106,-12 106,-24 106,-24 106,-30 100,-36 94,-36"/>
<text text-anchor="middle" x="79" y="-15.5" font-family="sans" font-size="10.00">all</text>
</g>
<!-- 1 -->
<g id="node2" class="node">
<title>1</title>
<path fill="none" stroke="#d85656" stroke-width="2" d="M96.5,-108C96.5,-108 61.5,-108 61.5,-108 55.5,-108 49.5,-102 49.5,-96 49.5,-96 49.5,-84 49.5,-84 49.5,-78 55.5,-72 61.5,-72 61.5,-72 96.5,-72 96.5,-72 102.5,-72 108.5,-78 108.5,-84 108.5,-84 108.5,-96 108.5,-96 108.5,-102 102.5,-108 96.5,-108"/>
<text text-anchor="middle" x="79" y="-87.5" font-family="sans" font-size="10.00">diamond</text>
</g>
<!-- 1&#45;&gt;0 -->
<g id="edge1" class="edge">
<title>1&#45;&gt;0</title>
<path fill="none" stroke="grey" stroke-width="2" d="M79,-71.7C79,-63.98 79,-54.71 79,-46.11"/>
<polygon fill="grey" stroke="grey" stroke-width="2" points="82.5,-46.1 79,-36.1 75.5,-46.1 82.5,-46.1"/>
</g>
<!-- 2 -->
<g id="node3" class="node">
<title>2</title>
<path fill="none" stroke="#56d87b" stroke-width="2" d="M95,-180C95,-180 63,-180 63,-180 57,-180 51,-174 51,-168 51,-168 51,-156 51,-156 51,-150 57,-144 63,-144 63,-144 95,-144 95,-144 101,-144 107,-150 107,-156 107,-156 107,-168 107,-168 107,-174 101,-180 95,-180"/>
<text text-anchor="middle" x="79" y="-159.5" font-family="sans" font-size="10.00">prodigal</text>
</g>
<!-- 2&#45;&gt;1 -->
<g id="edge2" class="edge">
<title>2&#45;&gt;1</title>
<path fill="none" stroke="grey" stroke-width="2" d="M79,-143.7C79,-135.98 79,-126.71 79,-118.11"/>
<polygon fill="grey" stroke="grey" stroke-width="2" points="82.5,-118.1 79,-108.1 75.5,-118.1 82.5,-118.1"/>
</g>
<!-- 3 -->
<g id="node4" class="node">
<title>3</title>
<path fill="none" stroke="#56d8c9" stroke-width="2" d="M96.5,-252C96.5,-252 61.5,-252 61.5,-252 55.5,-252 49.5,-246 49.5,-240 49.5,-240 49.5,-228 49.5,-228 49.5,-222 55.5,-216 61.5,-216 61.5,-216 96.5,-216 96.5,-216 102.5,-216 108.5,-222 108.5,-228 108.5,-228 108.5,-240 108.5,-240 108.5,-246 102.5,-252 96.5,-252"/>
<text text-anchor="middle" x="79" y="-231.5" font-family="sans" font-size="10.00">maxbin2</text>
</g>
<!-- 3&#45;&gt;2 -->
<g id="edge3" class="edge">
<title>3&#45;&gt;2</title>
<path fill="none" stroke="grey" stroke-width="2" d="M79,-215.7C79,-207.98 79,-198.71 79,-190.11"/>
<polygon fill="grey" stroke="grey" stroke-width="2" points="82.5,-190.1 79,-180.1 75.5,-190.1 82.5,-190.1"/>
</g>
<!-- 4 -->
<g id="node5" class="node">
<title>4</title>
<path fill="none" stroke="#78d856" stroke-width="2" d="M58,-396C58,-396 12,-396 12,-396 6,-396 0,-390 0,-384 0,-384 0,-372 0,-372 0,-366 6,-360 12,-360 12,-360 58,-360 58,-360 64,-360 70,-366 70,-372 70,-372 70,-384 70,-384 70,-390 64,-396 58,-396"/>
<text text-anchor="middle" x="35" y="-381" font-family="sans" font-size="10.00">subsample</text>
<text text-anchor="middle" x="35" y="-370" font-family="sans" font-size="10.00">read 1</text>
</g>
<!-- 4&#45;&gt;3 -->
<g id="edge4" class="edge">
<title>4&#45;&gt;3</title>
<path fill="none" stroke="grey" stroke-width="2" d="M33.42,-359.7C32.37,-341.34 32.47,-311.76 41,-288 44.52,-278.19 50.42,-268.59 56.54,-260.31"/>
<polygon fill="grey" stroke="grey" stroke-width="2" points="59.47,-262.23 62.89,-252.2 53.97,-257.91 59.47,-262.23"/>
</g>
<!-- 7 -->
<g id="node8" class="node">
<title>7</title>
<path fill="none" stroke="#c6d856" stroke-width="2" d="M95.5,-324C95.5,-324 62.5,-324 62.5,-324 56.5,-324 50.5,-318 50.5,-312 50.5,-312 50.5,-300 50.5,-300 50.5,-294 56.5,-288 62.5,-288 62.5,-288 95.5,-288 95.5,-288 101.5,-288 107.5,-294 107.5,-300 107.5,-300 107.5,-312 107.5,-312 107.5,-318 101.5,-324 95.5,-324"/>
<text text-anchor="middle" x="79" y="-303.5" font-family="sans" font-size="10.00">megahit</text>
</g>
<!-- 4&#45;&gt;7 -->
<g id="edge9" class="edge">
<title>4&#45;&gt;7</title>
<path fill="none" stroke="grey" stroke-width="2" d="M45.88,-359.7C50.99,-351.56 57.2,-341.69 62.84,-332.7"/>
<polygon fill="grey" stroke="grey" stroke-width="2" points="65.89,-334.43 68.25,-324.1 59.96,-330.71 65.89,-334.43"/>
</g>
<!-- 5 -->
<g id="node6" class="node">
<title>5</title>
<path fill="none" stroke="#d8a456" stroke-width="2" d="M109,-468C109,-468 49,-468 49,-468 43,-468 37,-462 37,-456 37,-456 37,-444 37,-444 37,-438 43,-432 49,-432 49,-432 109,-432 109,-432 115,-432 121,-438 121,-444 121,-444 121,-456 121,-456 121,-462 115,-468 109,-468"/>
<text text-anchor="middle" x="79" y="-447.5" font-family="sans" font-size="10.00">sra_download</text>
</g>
<!-- 5&#45;&gt;4 -->
<g id="edge7" class="edge">
<title>5&#45;&gt;4</title>
<path fill="none" stroke="grey" stroke-width="2" d="M68.12,-431.7C63.01,-423.56 56.8,-413.69 51.16,-404.7"/>
<polygon fill="grey" stroke="grey" stroke-width="2" points="54.04,-402.71 45.75,-396.1 48.11,-406.43 54.04,-402.71"/>
</g>
<!-- 6 -->
<g id="node7" class="node">
<title>6</title>
<path fill="none" stroke="#78d856" stroke-width="2" d="M146,-396C146,-396 100,-396 100,-396 94,-396 88,-390 88,-384 88,-384 88,-372 88,-372 88,-366 94,-360 100,-360 100,-360 146,-360 146,-360 152,-360 158,-366 158,-372 158,-372 158,-384 158,-384 158,-390 152,-396 146,-396"/>
<text text-anchor="middle" x="123" y="-381" font-family="sans" font-size="10.00">subsample</text>
<text text-anchor="middle" x="123" y="-370" font-family="sans" font-size="10.00">read 2</text>
</g>
<!-- 5&#45;&gt;6 -->
<g id="edge8" class="edge">
<title>5&#45;&gt;6</title>
<path fill="none" stroke="grey" stroke-width="2" d="M89.88,-431.7C94.99,-423.56 101.2,-413.69 106.84,-404.7"/>
<polygon fill="grey" stroke="grey" stroke-width="2" points="109.89,-406.43 112.25,-396.1 103.96,-402.71 109.89,-406.43"/>
</g>
<!-- 6&#45;&gt;3 -->
<g id="edge5" class="edge">
<title>6&#45;&gt;3</title>
<path fill="none" stroke="grey" stroke-width="2" d="M124.27,-359.71C125.03,-341.36 124.52,-311.78 116,-288 112.52,-278.28 106.76,-268.7 100.81,-260.41"/>
<polygon fill="grey" stroke="grey" stroke-width="2" points="103.47,-258.13 94.62,-252.29 97.9,-262.37 103.47,-258.13"/>
</g>
<!-- 6&#45;&gt;7 -->
<g id="edge10" class="edge">
<title>6&#45;&gt;7</title>
<path fill="none" stroke="grey" stroke-width="2" d="M112.12,-359.7C107.01,-351.56 100.8,-341.69 95.16,-332.7"/>
<polygon fill="grey" stroke="grey" stroke-width="2" points="98.04,-330.71 89.75,-324.1 92.11,-334.43 98.04,-330.71"/>
</g>
<!-- 7&#45;&gt;3 -->
<g id="edge6" class="edge">
<title>7&#45;&gt;3</title>
<path fill="none" stroke="grey" stroke-width="2" d="M79,-287.7C79,-279.98 79,-270.71 79,-262.11"/>
<polygon fill="grey" stroke="grey" stroke-width="2" points="82.5,-262.1 79,-252.1 75.5,-262.1 82.5,-262.1"/>
</g>
</g>
</svg>
